<?xml version="1.0" encoding="UTF-8" standalone="no"?>
<!DOCTYPE svg PUBLIC "-//W3C//DTD SVG 1.1//EN"
 "http://www.w3.org/Graphics/SVG/1.1/DTD/svg11.dtd">
<!-- Generated by graphviz version 2.43.0 (0)
 -->
<!-- Title: %3 Pages: 1 -->
<svg width="2648pt" height="332pt"
 viewBox="0.00 0.00 2647.98 332.00" xmlns="http://www.w3.org/2000/svg" xmlns:xlink="http://www.w3.org/1999/xlink">
<g id="graph0" class="graph" transform="scale(1 1) rotate(0) translate(4 328)">
<title>%3</title>
<polygon fill="white" stroke="transparent" points="-4,4 -4,-328 2643.98,-328 2643.98,4 -4,4"/>
<!-- [root] aws_instance.name (expand) -->
<g id="node1" class="node">
<title>[root] aws_instance.name (expand)</title>
<polygon fill="none" stroke="black" points="1880.48,-180 1725.48,-180 1725.48,-144 1880.48,-144 1880.48,-180"/>
<text text-anchor="middle" x="1802.98" y="-158.3" font-family="Times,serif" font-size="14.00">aws_instance.name</text>
</g>
<!-- [root] provider[&quot;registry.terraform.io/hashicorp/aws&quot;] -->
<g id="node5" class="node">
<title>[root] provider[&quot;registry.terraform.io/hashicorp/aws&quot;]</title>
<polygon fill="none" stroke="black" points="2216.98,-108 1891.71,-90 2216.98,-72 2542.24,-90 2216.98,-108"/>
<text text-anchor="middle" x="2216.98" y="-86.3" font-family="Times,serif" font-size="14.00">provider[&quot;registry.terraform.io/hashicorp/aws&quot;]</text>
</g>
<!-- [root] aws_instance.name (expand)&#45;&gt;[root] provider[&quot;registry.terraform.io/hashicorp/aws&quot;] -->
<g id="edge1" class="edge">
<title>[root] aws_instance.name (expand)&#45;&gt;[root] provider[&quot;registry.terraform.io/hashicorp/aws&quot;]</title>
<path fill="none" stroke="black" d="M1880.85,-147.83C1952.1,-135.79 2057.33,-117.99 2131.02,-105.53"/>
<polygon fill="black" stroke="black" points="2131.93,-108.93 2141.2,-103.81 2130.76,-102.03 2131.93,-108.93"/>
</g>
<!-- [root] var.ami -->
<g id="node10" class="node">
<title>[root] var.ami</title>
<polygon fill="none" stroke="black" points="1541.48,-108 1478.48,-108 1478.48,-72 1547.48,-72 1547.48,-102 1541.48,-108"/>
<polyline fill="none" stroke="black" points="1541.48,-108 1541.48,-102 "/>
<polyline fill="none" stroke="black" points="1547.48,-102 1541.48,-102 "/>
<text text-anchor="middle" x="1512.98" y="-86.3" font-family="Times,serif" font-size="14.00">var.ami</text>
</g>
<!-- [root] aws_instance.name (expand)&#45;&gt;[root] var.ami -->
<g id="edge2" class="edge">
<title>[root] aws_instance.name (expand)&#45;&gt;[root] var.ami</title>
<path fill="none" stroke="black" d="M1725.41,-145.67C1670.15,-134.5 1599.72,-119.73 1557.67,-107.91"/>
<polygon fill="black" stroke="black" points="1558.45,-104.49 1547.87,-105.05 1556.49,-111.21 1558.45,-104.49"/>
</g>
<!-- [root] var.instance_name -->
<g id="node12" class="node">
<title>[root] var.instance_name</title>
<polygon fill="none" stroke="black" points="1708.48,-108 1565.48,-108 1565.48,-72 1714.48,-72 1714.48,-102 1708.48,-108"/>
<polyline fill="none" stroke="black" points="1708.48,-108 1708.48,-102 "/>
<polyline fill="none" stroke="black" points="1714.48,-102 1708.48,-102 "/>
<text text-anchor="middle" x="1639.98" y="-86.3" font-family="Times,serif" font-size="14.00">var.instance_name</text>
</g>
<!-- [root] aws_instance.name (expand)&#45;&gt;[root] var.instance_name -->
<g id="edge3" class="edge">
<title>[root] aws_instance.name (expand)&#45;&gt;[root] var.instance_name</title>
<path fill="none" stroke="black" d="M1763.1,-143.88C1740.82,-134.31 1712.86,-122.3 1689.22,-112.15"/>
<polygon fill="black" stroke="black" points="1690.29,-108.8 1679.72,-108.07 1687.53,-115.23 1690.29,-108.8"/>
</g>
<!-- [root] var.instance_type -->
<g id="node13" class="node">
<title>[root] var.instance_type</title>
<polygon fill="none" stroke="black" points="1867.48,-108 1732.48,-108 1732.48,-72 1873.48,-72 1873.48,-102 1867.48,-108"/>
<polyline fill="none" stroke="black" points="1867.48,-108 1867.48,-102 "/>
<polyline fill="none" stroke="black" points="1873.48,-102 1867.48,-102 "/>
<text text-anchor="middle" x="1802.98" y="-86.3" font-family="Times,serif" font-size="14.00">var.instance_type</text>
</g>
<!-- [root] aws_instance.name (expand)&#45;&gt;[root] var.instance_type -->
<g id="edge4" class="edge">
<title>[root] aws_instance.name (expand)&#45;&gt;[root] var.instance_type</title>
<path fill="none" stroke="black" d="M1802.98,-143.7C1802.98,-135.98 1802.98,-126.71 1802.98,-118.11"/>
<polygon fill="black" stroke="black" points="1806.48,-118.1 1802.98,-108.1 1799.48,-118.1 1806.48,-118.1"/>
</g>
<!-- [root] aws_vpc.main (expand) -->
<g id="node2" class="node">
<title>[root] aws_vpc.main (expand)</title>
<polygon fill="none" stroke="black" points="2274.98,-180 2158.98,-180 2158.98,-144 2274.98,-144 2274.98,-180"/>
<text text-anchor="middle" x="2216.98" y="-158.3" font-family="Times,serif" font-size="14.00">aws_vpc.main</text>
</g>
<!-- [root] aws_vpc.main (expand)&#45;&gt;[root] provider[&quot;registry.terraform.io/hashicorp/aws&quot;] -->
<g id="edge5" class="edge">
<title>[root] aws_vpc.main (expand)&#45;&gt;[root] provider[&quot;registry.terraform.io/hashicorp/aws&quot;]</title>
<path fill="none" stroke="black" d="M2216.98,-143.7C2216.98,-135.98 2216.98,-126.71 2216.98,-118.11"/>
<polygon fill="black" stroke="black" points="2220.48,-118.1 2216.98,-108.1 2213.48,-118.1 2220.48,-118.1"/>
</g>
<!-- [root] var.CIDR -->
<g id="node9" class="node">
<title>[root] var.CIDR</title>
<polygon fill="none" stroke="black" points="2633.98,-108 2559.98,-108 2559.98,-72 2639.98,-72 2639.98,-102 2633.98,-108"/>
<polyline fill="none" stroke="black" points="2633.98,-108 2633.98,-102 "/>
<polyline fill="none" stroke="black" points="2639.98,-102 2633.98,-102 "/>
<text text-anchor="middle" x="2599.98" y="-86.3" font-family="Times,serif" font-size="14.00">var.CIDR</text>
</g>
<!-- [root] aws_vpc.main (expand)&#45;&gt;[root] var.CIDR -->
<g id="edge6" class="edge">
<title>[root] aws_vpc.main (expand)&#45;&gt;[root] var.CIDR</title>
<path fill="none" stroke="black" d="M2275.23,-154.92C2340.28,-147.42 2448.69,-132.83 2549.99,-108.01"/>
<polygon fill="black" stroke="black" points="2550.91,-111.39 2559.77,-105.58 2549.22,-104.6 2550.91,-111.39"/>
</g>
<!-- [root] local_file.pets (expand) -->
<g id="node3" class="node">
<title>[root] local_file.pets (expand)</title>
<polygon fill="none" stroke="black" points="748.48,-180 635.48,-180 635.48,-144 748.48,-144 748.48,-180"/>
<text text-anchor="middle" x="691.98" y="-158.3" font-family="Times,serif" font-size="14.00">local_file.pets</text>
</g>
<!-- [root] provider[&quot;registry.terraform.io/hashicorp/local&quot;] -->
<g id="node6" class="node">
<title>[root] provider[&quot;registry.terraform.io/hashicorp/local&quot;]</title>
<polygon fill="none" stroke="black" points="329.98,-108 0.02,-90 329.98,-72 659.93,-90 329.98,-108"/>
<text text-anchor="middle" x="329.98" y="-86.3" font-family="Times,serif" font-size="14.00">provider[&quot;registry.terraform.io/hashicorp/local&quot;]</text>
</g>
<!-- [root] local_file.pets (expand)&#45;&gt;[root] provider[&quot;registry.terraform.io/hashicorp/local&quot;] -->
<g id="edge7" class="edge">
<title>[root] local_file.pets (expand)&#45;&gt;[root] provider[&quot;registry.terraform.io/hashicorp/local&quot;]</title>
<path fill="none" stroke="black" d="M635.41,-150.06C574.48,-138.28 477.08,-119.44 408.68,-106.22"/>
<polygon fill="black" stroke="black" points="409.29,-102.77 398.81,-104.31 407.97,-109.65 409.29,-102.77"/>
</g>
<!-- [root] random_pet.random (expand) -->
<g id="node8" class="node">
<title>[root] random_pet.random (expand)</title>
<polygon fill="none" stroke="black" points="999.48,-108 838.48,-108 838.48,-72 999.48,-72 999.48,-108"/>
<text text-anchor="middle" x="918.98" y="-86.3" font-family="Times,serif" font-size="14.00">random_pet.random</text>
</g>
<!-- [root] local_file.pets (expand)&#45;&gt;[root] random_pet.random (expand) -->
<g id="edge8" class="edge">
<title>[root] local_file.pets (expand)&#45;&gt;[root] random_pet.random (expand)</title>
<path fill="none" stroke="black" d="M747.22,-143.97C779.35,-134.06 820.03,-121.51 853.73,-111.12"/>
<polygon fill="black" stroke="black" points="854.96,-114.4 863.49,-108.11 852.9,-107.71 854.96,-114.4"/>
</g>
<!-- [root] var.filename -->
<g id="node11" class="node">
<title>[root] var.filename</title>
<polygon fill="none" stroke="black" points="775.98,-108 677.98,-108 677.98,-72 781.98,-72 781.98,-102 775.98,-108"/>
<polyline fill="none" stroke="black" points="775.98,-108 775.98,-102 "/>
<polyline fill="none" stroke="black" points="781.98,-102 775.98,-102 "/>
<text text-anchor="middle" x="729.98" y="-86.3" font-family="Times,serif" font-size="14.00">var.filename</text>
</g>
<!-- [root] local_file.pets (expand)&#45;&gt;[root] var.filename -->
<g id="edge9" class="edge">
<title>[root] local_file.pets (expand)&#45;&gt;[root] var.filename</title>
<path fill="none" stroke="black" d="M701.37,-143.7C705.74,-135.64 711.03,-125.89 715.87,-116.98"/>
<polygon fill="black" stroke="black" points="719,-118.56 720.69,-108.1 712.85,-115.22 719,-118.56"/>
</g>
<!-- [root] output.pet&#45;name (destroy) -->
<g id="node4" class="node">
<title>[root] output.pet&#45;name (destroy)</title>
<polygon fill="none" stroke="black" points="425.98,-252 227.98,-252 227.98,-216 431.98,-216 431.98,-246 425.98,-252"/>
<polyline fill="none" stroke="black" points="425.98,-252 425.98,-246 "/>
<polyline fill="none" stroke="black" points="431.98,-246 425.98,-246 "/>
<text text-anchor="middle" x="329.98" y="-230.3" font-family="Times,serif" font-size="14.00">output.pet&#45;name (destroy)</text>
</g>
<!-- [root] provider[&quot;registry.terraform.io/hashicorp/random&quot;] -->
<g id="node7" class="node">
<title>[root] provider[&quot;registry.terraform.io/hashicorp/random&quot;]</title>
<polygon fill="none" stroke="black" points="453.98,-36 103.58,-18 453.98,0 804.38,-18 453.98,-36"/>
<text text-anchor="middle" x="453.98" y="-14.3" font-family="Times,serif" font-size="14.00">provider[&quot;registry.terraform.io/hashicorp/random&quot;]</text>
</g>
<!-- [root] random_pet.random (expand)&#45;&gt;[root] provider[&quot;registry.terraform.io/hashicorp/random&quot;] -->
<g id="edge16" class="edge">
<title>[root] random_pet.random (expand)&#45;&gt;[root] provider[&quot;registry.terraform.io/hashicorp/random&quot;]</title>
<path fill="none" stroke="black" d="M838.25,-76.85C757.57,-64.7 633.59,-46.04 548.39,-33.21"/>
<polygon fill="black" stroke="black" points="548.87,-29.75 538.46,-31.72 547.83,-36.67 548.87,-29.75"/>
</g>
<!-- [root] var.length -->
<g id="node14" class="node">
<title>[root] var.length</title>
<polygon fill="none" stroke="black" points="905.48,-36 822.48,-36 822.48,0 911.48,0 911.48,-30 905.48,-36"/>
<polyline fill="none" stroke="black" points="905.48,-36 905.48,-30 "/>
<polyline fill="none" stroke="black" points="911.48,-30 905.48,-30 "/>
<text text-anchor="middle" x="866.98" y="-14.3" font-family="Times,serif" font-size="14.00">var.length</text>
</g>
<!-- [root] random_pet.random (expand)&#45;&gt;[root] var.length -->
<g id="edge17" class="edge">
<title>[root] random_pet.random (expand)&#45;&gt;[root] var.length</title>
<path fill="none" stroke="black" d="M906.12,-71.7C899.95,-63.39 892.44,-53.28 885.65,-44.14"/>
<polygon fill="black" stroke="black" points="888.46,-42.04 879.68,-36.1 882.84,-46.22 888.46,-42.04"/>
</g>
<!-- [root] var.prefix -->
<g id="node15" class="node">
<title>[root] var.prefix</title>
<polygon fill="none" stroke="black" points="1006.98,-36 928.98,-36 928.98,0 1012.98,0 1012.98,-30 1006.98,-36"/>
<polyline fill="none" stroke="black" points="1006.98,-36 1006.98,-30 "/>
<polyline fill="none" stroke="black" points="1012.98,-30 1006.98,-30 "/>
<text text-anchor="middle" x="970.98" y="-14.3" font-family="Times,serif" font-size="14.00">var.prefix</text>
</g>
<!-- [root] random_pet.random (expand)&#45;&gt;[root] var.prefix -->
<g id="edge18" class="edge">
<title>[root] random_pet.random (expand)&#45;&gt;[root] var.prefix</title>
<path fill="none" stroke="black" d="M931.83,-71.7C938,-63.39 945.51,-53.28 952.3,-44.14"/>
<polygon fill="black" stroke="black" points="955.12,-46.22 958.27,-36.1 949.5,-42.04 955.12,-46.22"/>
</g>
<!-- [root] var.separator -->
<g id="node16" class="node">
<title>[root] var.separator</title>
<polygon fill="none" stroke="black" points="1136.98,-36 1030.98,-36 1030.98,0 1142.98,0 1142.98,-30 1136.98,-36"/>
<polyline fill="none" stroke="black" points="1136.98,-36 1136.98,-30 "/>
<polyline fill="none" stroke="black" points="1142.98,-30 1136.98,-30 "/>
<text text-anchor="middle" x="1086.98" y="-14.3" font-family="Times,serif" font-size="14.00">var.separator</text>
</g>
<!-- [root] random_pet.random (expand)&#45;&gt;[root] var.separator -->
<g id="edge19" class="edge">
<title>[root] random_pet.random (expand)&#45;&gt;[root] var.separator</title>
<path fill="none" stroke="black" d="M960.07,-71.88C983.14,-62.26 1012.11,-50.19 1036.55,-40.01"/>
<polygon fill="black" stroke="black" points="1038.13,-43.15 1046.01,-36.07 1035.44,-36.68 1038.13,-43.15"/>
</g>
<!-- [root] output.pets (expand) -->
<g id="node17" class="node">
<title>[root] output.pets (expand)</title>
<ellipse fill="none" stroke="black" cx="585.98" cy="-234" rx="136.48" ry="18"/>
<text text-anchor="middle" x="585.98" y="-230.3" font-family="Times,serif" font-size="14.00">[root] output.pets (expand)</text>
</g>
<!-- [root] output.pets (expand)&#45;&gt;[root] local_file.pets (expand) -->
<g id="edge10" class="edge">
<title>[root] output.pets (expand)&#45;&gt;[root] local_file.pets (expand)</title>
<path fill="none" stroke="black" d="M611.37,-216.23C625.19,-207.1 642.49,-195.68 657.52,-185.76"/>
<polygon fill="black" stroke="black" points="659.64,-188.55 666.06,-180.12 655.79,-182.71 659.64,-188.55"/>
</g>
<!-- [root] output.random (expand) -->
<g id="node18" class="node">
<title>[root] output.random (expand)</title>
<ellipse fill="none" stroke="black" cx="918.98" cy="-162" rx="152.17" ry="18"/>
<text text-anchor="middle" x="918.98" y="-158.3" font-family="Times,serif" font-size="14.00">[root] output.random (expand)</text>
</g>
<!-- [root] output.random (expand)&#45;&gt;[root] random_pet.random (expand) -->
<g id="edge11" class="edge">
<title>[root] output.random (expand)&#45;&gt;[root] random_pet.random (expand)</title>
<path fill="none" stroke="black" d="M918.98,-143.7C918.98,-135.98 918.98,-126.71 918.98,-118.11"/>
<polygon fill="black" stroke="black" points="922.48,-118.1 918.98,-108.1 915.48,-118.1 922.48,-118.1"/>
</g>
<!-- [root] provider[&quot;registry.terraform.io/hashicorp/aws&quot;] (close) -->
<g id="node19" class="node">
<title>[root] provider[&quot;registry.terraform.io/hashicorp/aws&quot;] (close)</title>
<ellipse fill="none" stroke="black" cx="1802.98" cy="-234" rx="291.65" ry="18"/>
<text text-anchor="middle" x="1802.98" y="-230.3" font-family="Times,serif" font-size="14.00">[root] provider[&quot;registry.terraform.io/hashicorp/aws&quot;] (close)</text>
</g>
<!-- [root] provider[&quot;registry.terraform.io/hashicorp/aws&quot;] (close)&#45;&gt;[root] aws_instance.name (expand) -->
<g id="edge12" class="edge">
<title>[root] provider[&quot;registry.terraform.io/hashicorp/aws&quot;] (close)&#45;&gt;[root] aws_instance.name (expand)</title>
<path fill="none" stroke="black" d="M1802.98,-215.7C1802.98,-207.98 1802.98,-198.71 1802.98,-190.11"/>
<polygon fill="black" stroke="black" points="1806.48,-190.1 1802.98,-180.1 1799.48,-190.1 1806.48,-190.1"/>
</g>
<!-- [root] provider[&quot;registry.terraform.io/hashicorp/aws&quot;] (close)&#45;&gt;[root] aws_vpc.main (expand) -->
<g id="edge13" class="edge">
<title>[root] provider[&quot;registry.terraform.io/hashicorp/aws&quot;] (close)&#45;&gt;[root] aws_vpc.main (expand)</title>
<path fill="none" stroke="black" d="M1897.96,-216.94C1974.48,-204 2080.23,-186.12 2148.61,-174.56"/>
<polygon fill="black" stroke="black" points="2149.57,-177.95 2158.84,-172.83 2148.4,-171.05 2149.57,-177.95"/>
</g>
<!-- [root] provider[&quot;registry.terraform.io/hashicorp/local&quot;] (close) -->
<g id="node20" class="node">
<title>[root] provider[&quot;registry.terraform.io/hashicorp/local&quot;] (close)</title>
<ellipse fill="none" stroke="black" cx="1035.98" cy="-234" rx="295.95" ry="18"/>
<text text-anchor="middle" x="1035.98" y="-230.3" font-family="Times,serif" font-size="14.00">[root] provider[&quot;registry.terraform.io/hashicorp/local&quot;] (close)</text>
</g>
<!-- [root] provider[&quot;registry.terraform.io/hashicorp/local&quot;] (close)&#45;&gt;[root] local_file.pets (expand) -->
<g id="edge14" class="edge">
<title>[root] provider[&quot;registry.terraform.io/hashicorp/local&quot;] (close)&#45;&gt;[root] local_file.pets (expand)</title>
<path fill="none" stroke="black" d="M943.32,-216.86C891.66,-207.5 825.96,-195 758.73,-180.1"/>
<polygon fill="black" stroke="black" points="759.33,-176.64 748.8,-177.88 757.8,-183.48 759.33,-176.64"/>
</g>
<!-- [root] provider[&quot;registry.terraform.io/hashicorp/random&quot;] (close) -->
<g id="node21" class="node">
<title>[root] provider[&quot;registry.terraform.io/hashicorp/random&quot;] (close)</title>
<ellipse fill="none" stroke="black" cx="1397.98" cy="-162" rx="309.25" ry="18"/>
<text text-anchor="middle" x="1397.98" y="-158.3" font-family="Times,serif" font-size="14.00">[root] provider[&quot;registry.terraform.io/hashicorp/random&quot;] (close)</text>
</g>
<!-- [root] provider[&quot;registry.terraform.io/hashicorp/random&quot;] (close)&#45;&gt;[root] random_pet.random (expand) -->
<g id="edge15" class="edge">
<title>[root] provider[&quot;registry.terraform.io/hashicorp/random&quot;] (close)&#45;&gt;[root] random_pet.random (expand)</title>
<path fill="none" stroke="black" d="M1289.28,-145.12C1204.84,-132.78 1089.11,-115.86 1009.62,-104.25"/>
<polygon fill="black" stroke="black" points="1010.03,-100.77 999.63,-102.79 1009.02,-107.7 1010.03,-100.77"/>
</g>
<!-- [root] root -->
<g id="node22" class="node">
<title>[root] root</title>
<ellipse fill="none" stroke="black" cx="1197.98" cy="-306" rx="58.49" ry="18"/>
<text text-anchor="middle" x="1197.98" y="-302.3" font-family="Times,serif" font-size="14.00">[root] root</text>
</g>
<!-- [root] root&#45;&gt;[root] output.pet&#45;name (destroy) -->
<g id="edge20" class="edge">
<title>[root] root&#45;&gt;[root] output.pet&#45;name (destroy)</title>
<path fill="none" stroke="black" d="M1140.38,-302.58C1015.26,-296.98 709.11,-281.39 442.42,-252.11"/>
<polygon fill="black" stroke="black" points="442.48,-248.59 432.15,-250.97 441.71,-255.55 442.48,-248.59"/>
</g>
<!-- [root] root&#45;&gt;[root] output.pets (expand) -->
<g id="edge21" class="edge">
<title>[root] root&#45;&gt;[root] output.pets (expand)</title>
<path fill="none" stroke="black" d="M1144.04,-298.94C1057.08,-289.17 880.53,-269.25 730.98,-252 719.17,-250.64 706.83,-249.21 694.54,-247.77"/>
<polygon fill="black" stroke="black" points="694.59,-244.25 684.25,-246.57 693.78,-251.21 694.59,-244.25"/>
</g>
<!-- [root] root&#45;&gt;[root] output.random (expand) -->
<g id="edge22" class="edge">
<title>[root] root&#45;&gt;[root] output.random (expand)</title>
<path fill="none" stroke="black" d="M1244.34,-294.84C1297.82,-281.09 1374.35,-253.83 1340.98,-216 1335.91,-210.25 1159.8,-189.66 1036.72,-175.9"/>
<polygon fill="black" stroke="black" points="1036.79,-172.38 1026.47,-174.75 1036.02,-179.34 1036.79,-172.38"/>
</g>
<!-- [root] root&#45;&gt;[root] provider[&quot;registry.terraform.io/hashicorp/aws&quot;] (close) -->
<g id="edge23" class="edge">
<title>[root] root&#45;&gt;[root] provider[&quot;registry.terraform.io/hashicorp/aws&quot;] (close)</title>
<path fill="none" stroke="black" d="M1251.67,-298.79C1342.99,-288.22 1531.37,-266.43 1662.35,-251.27"/>
<polygon fill="black" stroke="black" points="1662.94,-254.73 1672.47,-250.1 1662.13,-247.77 1662.94,-254.73"/>
</g>
<!-- [root] root&#45;&gt;[root] provider[&quot;registry.terraform.io/hashicorp/local&quot;] (close) -->
<g id="edge24" class="edge">
<title>[root] root&#45;&gt;[root] provider[&quot;registry.terraform.io/hashicorp/local&quot;] (close)</title>
<path fill="none" stroke="black" d="M1165.58,-291C1142.39,-280.98 1110.77,-267.32 1084.56,-255.99"/>
<polygon fill="black" stroke="black" points="1085.75,-252.69 1075.18,-251.94 1082.97,-259.12 1085.75,-252.69"/>
</g>
<!-- [root] root&#45;&gt;[root] provider[&quot;registry.terraform.io/hashicorp/random&quot;] (close) -->
<g id="edge25" class="edge">
<title>[root] root&#45;&gt;[root] provider[&quot;registry.terraform.io/hashicorp/random&quot;] (close)</title>
<path fill="none" stroke="black" d="M1255.3,-301.85C1293.84,-296.71 1343.07,-283.82 1373.98,-252 1389.88,-235.63 1395.51,-209.88 1397.38,-190.29"/>
<polygon fill="black" stroke="black" points="1400.89,-190.34 1398.07,-180.13 1393.9,-189.87 1400.89,-190.34"/>
</g>
</g>
</svg>
