<?xml version="1.0" encoding="UTF-8" standalone="no"?>
<!DOCTYPE svg PUBLIC "-//W3C//DTD SVG 1.1//EN"
 "http://www.w3.org/Graphics/SVG/1.1/DTD/svg11.dtd">
<!-- Generated by graphviz version 2.43.0 (0)
 -->
<!-- Title: %3 Pages: 1 -->
<svg width="1923pt" height="548pt"
 viewBox="0.00 0.00 1922.50 548.00" xmlns="http://www.w3.org/2000/svg" xmlns:xlink="http://www.w3.org/1999/xlink">
<g id="graph0" class="graph" transform="scale(1 1) rotate(0) translate(4 544)">
<title>%3</title>
<polygon fill="white" stroke="transparent" points="-4,4 -4,-544 1918.5,-544 1918.5,4 -4,4"/>
<!-- [root] aws_eip.NAT (expand) -->
<g id="node1" class="node">
<title>[root] aws_eip.NAT (expand)</title>
<polygon fill="none" stroke="black" points="682,-180 575,-180 575,-144 682,-144 682,-180"/>
<text text-anchor="middle" x="628.5" y="-158.3" font-family="Times,serif" font-size="14.00">aws_eip.NAT</text>
</g>
<!-- [root] provider[&quot;registry.terraform.io/hashicorp/aws&quot;] -->
<g id="node14" class="node">
<title>[root] provider[&quot;registry.terraform.io/hashicorp/aws&quot;]</title>
<polygon fill="none" stroke="black" points="806.5,-36 481.24,-18 806.5,0 1131.76,-18 806.5,-36"/>
<text text-anchor="middle" x="806.5" y="-14.3" font-family="Times,serif" font-size="14.00">provider[&quot;registry.terraform.io/hashicorp/aws&quot;]</text>
</g>
<!-- [root] aws_eip.NAT (expand)&#45;&gt;[root] provider[&quot;registry.terraform.io/hashicorp/aws&quot;] -->
<g id="edge1" class="edge">
<title>[root] aws_eip.NAT (expand)&#45;&gt;[root] provider[&quot;registry.terraform.io/hashicorp/aws&quot;]</title>
<path fill="none" stroke="black" d="M614.69,-143.96C600.89,-124.74 583.93,-93.38 600.5,-72 614.23,-54.29 661.23,-41.46 706.87,-32.87"/>
<polygon fill="black" stroke="black" points="707.67,-36.28 716.88,-31.04 706.42,-29.39 707.67,-36.28"/>
</g>
<!-- [root] var.EIP_Name -->
<g id="node15" class="node">
<title>[root] var.EIP_Name</title>
<polygon fill="none" stroke="black" points="721,-108 610,-108 610,-72 727,-72 727,-102 721,-108"/>
<polyline fill="none" stroke="black" points="721,-108 721,-102 "/>
<polyline fill="none" stroke="black" points="727,-102 721,-102 "/>
<text text-anchor="middle" x="668.5" y="-86.3" font-family="Times,serif" font-size="14.00">var.EIP_Name</text>
</g>
<!-- [root] aws_eip.NAT (expand)&#45;&gt;[root] var.EIP_Name -->
<g id="edge2" class="edge">
<title>[root] aws_eip.NAT (expand)&#45;&gt;[root] var.EIP_Name</title>
<path fill="none" stroke="black" d="M638.39,-143.7C642.99,-135.64 648.56,-125.89 653.65,-116.98"/>
<polygon fill="black" stroke="black" points="656.8,-118.52 658.73,-108.1 650.73,-115.05 656.8,-118.52"/>
</g>
<!-- [root] aws_instance.private (expand) -->
<g id="node2" class="node">
<title>[root] aws_instance.private (expand)</title>
<polygon fill="none" stroke="black" points="1351,-396 1184,-396 1184,-360 1351,-360 1351,-396"/>
<text text-anchor="middle" x="1267.5" y="-374.3" font-family="Times,serif" font-size="14.00">aws_instance.private</text>
</g>
<!-- [root] aws_security_group.demo_vpc_SG (expand) -->
<g id="node10" class="node">
<title>[root] aws_security_group.demo_vpc_SG (expand)</title>
<polygon fill="none" stroke="black" points="1796.5,-324 1536.5,-324 1536.5,-288 1796.5,-288 1796.5,-324"/>
<text text-anchor="middle" x="1666.5" y="-302.3" font-family="Times,serif" font-size="14.00">aws_security_group.demo_vpc_SG</text>
</g>
<!-- [root] aws_instance.private (expand)&#45;&gt;[root] aws_security_group.demo_vpc_SG (expand) -->
<g id="edge3" class="edge">
<title>[root] aws_instance.private (expand)&#45;&gt;[root] aws_security_group.demo_vpc_SG (expand)</title>
<path fill="none" stroke="black" d="M1351.14,-362.33C1411.68,-351.71 1493.99,-337.26 1559.34,-325.8"/>
<polygon fill="black" stroke="black" points="1560.02,-329.23 1569.27,-324.06 1558.81,-322.34 1560.02,-329.23"/>
</g>
<!-- [root] aws_subnet.private (expand) -->
<g id="node11" class="node">
<title>[root] aws_subnet.private (expand)</title>
<polygon fill="none" stroke="black" points="1087,-324 932,-324 932,-288 1087,-288 1087,-324"/>
<text text-anchor="middle" x="1009.5" y="-302.3" font-family="Times,serif" font-size="14.00">aws_subnet.private</text>
</g>
<!-- [root] aws_instance.private (expand)&#45;&gt;[root] aws_subnet.private (expand) -->
<g id="edge4" class="edge">
<title>[root] aws_instance.private (expand)&#45;&gt;[root] aws_subnet.private (expand)</title>
<path fill="none" stroke="black" d="M1204.72,-359.97C1167.88,-349.97 1121.17,-337.3 1082.68,-326.85"/>
<polygon fill="black" stroke="black" points="1083.13,-323.35 1072.57,-324.11 1081.3,-330.11 1083.13,-323.35"/>
</g>
<!-- [root] var.ami -->
<g id="node20" class="node">
<title>[root] var.ami</title>
<polygon fill="none" stroke="black" points="1315,-324 1252,-324 1252,-288 1321,-288 1321,-318 1315,-324"/>
<polyline fill="none" stroke="black" points="1315,-324 1315,-318 "/>
<polyline fill="none" stroke="black" points="1321,-318 1315,-318 "/>
<text text-anchor="middle" x="1286.5" y="-302.3" font-family="Times,serif" font-size="14.00">var.ami</text>
</g>
<!-- [root] aws_instance.private (expand)&#45;&gt;[root] var.ami -->
<g id="edge5" class="edge">
<title>[root] aws_instance.private (expand)&#45;&gt;[root] var.ami</title>
<path fill="none" stroke="black" d="M1272.2,-359.7C1274.31,-351.9 1276.86,-342.51 1279.22,-333.83"/>
<polygon fill="black" stroke="black" points="1282.62,-334.67 1281.86,-324.1 1275.86,-332.84 1282.62,-334.67"/>
</g>
<!-- [root] var.instance_type -->
<g id="node23" class="node">
<title>[root] var.instance_type</title>
<polygon fill="none" stroke="black" points="1474,-324 1339,-324 1339,-288 1480,-288 1480,-318 1474,-324"/>
<polyline fill="none" stroke="black" points="1474,-324 1474,-318 "/>
<polyline fill="none" stroke="black" points="1480,-318 1474,-318 "/>
<text text-anchor="middle" x="1409.5" y="-302.3" font-family="Times,serif" font-size="14.00">var.instance_type</text>
</g>
<!-- [root] aws_instance.private (expand)&#45;&gt;[root] var.instance_type -->
<g id="edge6" class="edge">
<title>[root] aws_instance.private (expand)&#45;&gt;[root] var.instance_type</title>
<path fill="none" stroke="black" d="M1302.24,-359.88C1321.32,-350.47 1345.18,-338.71 1365.55,-328.67"/>
<polygon fill="black" stroke="black" points="1367.21,-331.75 1374.63,-324.19 1364.11,-325.47 1367.21,-331.75"/>
</g>
<!-- [root] var.secound_ins -->
<g id="node35" class="node">
<title>[root] var.secound_ins</title>
<polygon fill="none" stroke="black" points="1228,-324 1105,-324 1105,-288 1234,-288 1234,-318 1228,-324"/>
<polyline fill="none" stroke="black" points="1228,-324 1228,-318 "/>
<polyline fill="none" stroke="black" points="1234,-318 1228,-318 "/>
<text text-anchor="middle" x="1169.5" y="-302.3" font-family="Times,serif" font-size="14.00">var.secound_ins</text>
</g>
<!-- [root] aws_instance.private (expand)&#45;&gt;[root] var.secound_ins -->
<g id="edge7" class="edge">
<title>[root] aws_instance.private (expand)&#45;&gt;[root] var.secound_ins</title>
<path fill="none" stroke="black" d="M1243.53,-359.88C1230.95,-350.89 1215.37,-339.76 1201.75,-330.03"/>
<polygon fill="black" stroke="black" points="1203.74,-327.15 1193.57,-324.19 1199.67,-332.85 1203.74,-327.15"/>
</g>
<!-- [root] aws_instance.public (expand) -->
<g id="node3" class="node">
<title>[root] aws_instance.public (expand)</title>
<polygon fill="none" stroke="black" points="1558,-396 1399,-396 1399,-360 1558,-360 1558,-396"/>
<text text-anchor="middle" x="1478.5" y="-374.3" font-family="Times,serif" font-size="14.00">aws_instance.public</text>
</g>
<!-- [root] aws_instance.public (expand)&#45;&gt;[root] aws_security_group.demo_vpc_SG (expand) -->
<g id="edge8" class="edge">
<title>[root] aws_instance.public (expand)&#45;&gt;[root] aws_security_group.demo_vpc_SG (expand)</title>
<path fill="none" stroke="black" d="M1524.49,-359.88C1550.65,-350.14 1583.59,-337.87 1611.15,-327.61"/>
<polygon fill="black" stroke="black" points="1612.51,-330.84 1620.66,-324.07 1610.07,-324.28 1612.51,-330.84"/>
</g>
<!-- [root] aws_subnet.public (expand) -->
<g id="node12" class="node">
<title>[root] aws_subnet.public (expand)</title>
<polygon fill="none" stroke="black" points="1148.5,-180 1000.5,-180 1000.5,-144 1148.5,-144 1148.5,-180"/>
<text text-anchor="middle" x="1074.5" y="-158.3" font-family="Times,serif" font-size="14.00">aws_subnet.public</text>
</g>
<!-- [root] aws_instance.public (expand)&#45;&gt;[root] aws_subnet.public (expand) -->
<g id="edge9" class="edge">
<title>[root] aws_instance.public (expand)&#45;&gt;[root] aws_subnet.public (expand)</title>
<path fill="none" stroke="black" d="M1482.96,-359.95C1485.44,-349.63 1488.25,-336.15 1489.5,-324 1494.7,-273.38 1493.14,-245.25 1451.5,-216 1405.66,-183.8 1255.25,-171 1158.84,-166.03"/>
<polygon fill="black" stroke="black" points="1158.97,-162.54 1148.81,-165.54 1158.63,-169.53 1158.97,-162.54"/>
</g>
<!-- [root] aws_instance.public (expand)&#45;&gt;[root] var.ami -->
<g id="edge10" class="edge">
<title>[root] aws_instance.public (expand)&#45;&gt;[root] var.ami</title>
<path fill="none" stroke="black" d="M1430.06,-360C1401.11,-349.75 1363.62,-336.33 1330.5,-324 1330.4,-323.96 1330.31,-323.93 1330.21,-323.89"/>
<polygon fill="black" stroke="black" points="1331.65,-320.69 1321.06,-320.44 1329.18,-327.24 1331.65,-320.69"/>
</g>
<!-- [root] var.first_ins -->
<g id="node22" class="node">
<title>[root] var.first_ins</title>
<polygon fill="none" stroke="black" points="1908.5,-324 1814.5,-324 1814.5,-288 1914.5,-288 1914.5,-318 1908.5,-324"/>
<polyline fill="none" stroke="black" points="1908.5,-324 1908.5,-318 "/>
<polyline fill="none" stroke="black" points="1914.5,-318 1908.5,-318 "/>
<text text-anchor="middle" x="1864.5" y="-302.3" font-family="Times,serif" font-size="14.00">var.first_ins</text>
</g>
<!-- [root] aws_instance.public (expand)&#45;&gt;[root] var.first_ins -->
<g id="edge11" class="edge">
<title>[root] aws_instance.public (expand)&#45;&gt;[root] var.first_ins</title>
<path fill="none" stroke="black" d="M1558.3,-366.79C1622.49,-357.95 1715.1,-343.79 1804.62,-324.06"/>
<polygon fill="black" stroke="black" points="1805.39,-327.47 1814.39,-321.88 1803.87,-320.64 1805.39,-327.47"/>
</g>
<!-- [root] aws_instance.public (expand)&#45;&gt;[root] var.instance_type -->
<g id="edge12" class="edge">
<title>[root] aws_instance.public (expand)&#45;&gt;[root] var.instance_type</title>
<path fill="none" stroke="black" d="M1461.44,-359.7C1453,-351.14 1442.68,-340.66 1433.46,-331.3"/>
<polygon fill="black" stroke="black" points="1435.87,-328.77 1426.36,-324.1 1430.89,-333.68 1435.87,-328.77"/>
</g>
<!-- [root] aws_internet_gateway.Intgateway (expand) -->
<g id="node4" class="node">
<title>[root] aws_internet_gateway.Intgateway (expand)</title>
<polygon fill="none" stroke="black" points="556.5,-180 298.5,-180 298.5,-144 556.5,-144 556.5,-180"/>
<text text-anchor="middle" x="427.5" y="-158.3" font-family="Times,serif" font-size="14.00">aws_internet_gateway.Intgateway</text>
</g>
<!-- [root] aws_vpc.demo (expand) -->
<g id="node13" class="node">
<title>[root] aws_vpc.demo (expand)</title>
<polygon fill="none" stroke="black" points="1491,-108 1372,-108 1372,-72 1491,-72 1491,-108"/>
<text text-anchor="middle" x="1431.5" y="-86.3" font-family="Times,serif" font-size="14.00">aws_vpc.demo</text>
</g>
<!-- [root] aws_internet_gateway.Intgateway (expand)&#45;&gt;[root] aws_vpc.demo (expand) -->
<g id="edge13" class="edge">
<title>[root] aws_internet_gateway.Intgateway (expand)&#45;&gt;[root] aws_vpc.demo (expand)</title>
<path fill="none" stroke="black" d="M556.75,-144.77C559.69,-144.5 562.61,-144.24 565.5,-144 915.56,-114.58 1009.81,-157.84 1361.84,-107.9"/>
<polygon fill="black" stroke="black" points="1362.4,-111.35 1371.8,-106.47 1361.41,-104.42 1362.4,-111.35"/>
</g>
<!-- [root] var.Intgat_name -->
<g id="node16" class="node">
<title>[root] var.Intgat_name</title>
<polygon fill="none" stroke="black" points="487.5,-108 361.5,-108 361.5,-72 493.5,-72 493.5,-102 487.5,-108"/>
<polyline fill="none" stroke="black" points="487.5,-108 487.5,-102 "/>
<polyline fill="none" stroke="black" points="493.5,-102 487.5,-102 "/>
<text text-anchor="middle" x="427.5" y="-86.3" font-family="Times,serif" font-size="14.00">var.Intgat_name</text>
</g>
<!-- [root] aws_internet_gateway.Intgateway (expand)&#45;&gt;[root] var.Intgat_name -->
<g id="edge14" class="edge">
<title>[root] aws_internet_gateway.Intgateway (expand)&#45;&gt;[root] var.Intgat_name</title>
<path fill="none" stroke="black" d="M427.5,-143.7C427.5,-135.98 427.5,-126.71 427.5,-118.11"/>
<polygon fill="black" stroke="black" points="431,-118.1 427.5,-108.1 424,-118.1 431,-118.1"/>
</g>
<!-- [root] aws_nat_gateway.name (expand) -->
<g id="node5" class="node">
<title>[root] aws_nat_gateway.name (expand)</title>
<polygon fill="none" stroke="black" points="519.5,-252 337.5,-252 337.5,-216 519.5,-216 519.5,-252"/>
<text text-anchor="middle" x="428.5" y="-230.3" font-family="Times,serif" font-size="14.00">aws_nat_gateway.name</text>
</g>
<!-- [root] aws_nat_gateway.name (expand)&#45;&gt;[root] aws_eip.NAT (expand) -->
<g id="edge15" class="edge">
<title>[root] aws_nat_gateway.name (expand)&#45;&gt;[root] aws_eip.NAT (expand)</title>
<path fill="none" stroke="black" d="M477.17,-215.97C505.11,-206.19 540.4,-193.84 569.86,-183.52"/>
<polygon fill="black" stroke="black" points="571.33,-186.72 579.61,-180.11 569.02,-180.11 571.33,-186.72"/>
</g>
<!-- [root] aws_nat_gateway.name (expand)&#45;&gt;[root] aws_subnet.public (expand) -->
<g id="edge16" class="edge">
<title>[root] aws_nat_gateway.name (expand)&#45;&gt;[root] aws_subnet.public (expand)</title>
<path fill="none" stroke="black" d="M519.51,-217.91C524.24,-217.23 528.92,-216.59 533.5,-216 694.65,-195.08 883.78,-178.32 990.34,-169.6"/>
<polygon fill="black" stroke="black" points="990.71,-173.08 1000.39,-168.78 990.14,-166.1 990.71,-173.08"/>
</g>
<!-- [root] var.NAT_Name -->
<g id="node17" class="node">
<title>[root] var.NAT_Name</title>
<polygon fill="none" stroke="black" points="816.5,-180 700.5,-180 700.5,-144 822.5,-144 822.5,-174 816.5,-180"/>
<polyline fill="none" stroke="black" points="816.5,-180 816.5,-174 "/>
<polyline fill="none" stroke="black" points="822.5,-174 816.5,-174 "/>
<text text-anchor="middle" x="761.5" y="-158.3" font-family="Times,serif" font-size="14.00">var.NAT_Name</text>
</g>
<!-- [root] aws_nat_gateway.name (expand)&#45;&gt;[root] var.NAT_Name -->
<g id="edge17" class="edge">
<title>[root] aws_nat_gateway.name (expand)&#45;&gt;[root] var.NAT_Name</title>
<path fill="none" stroke="black" d="M516.59,-215.99C567.51,-205.95 632.72,-192.76 690.5,-180 690.6,-179.98 690.7,-179.96 690.8,-179.93"/>
<polygon fill="black" stroke="black" points="691.35,-183.4 700.34,-177.79 689.82,-176.57 691.35,-183.4"/>
</g>
<!-- [root] aws_route_table.private (expand) -->
<g id="node6" class="node">
<title>[root] aws_route_table.private (expand)</title>
<polygon fill="none" stroke="black" points="865.5,-324 677.5,-324 677.5,-288 865.5,-288 865.5,-324"/>
<text text-anchor="middle" x="771.5" y="-302.3" font-family="Times,serif" font-size="14.00">aws_route_table.private</text>
</g>
<!-- [root] aws_route_table.private (expand)&#45;&gt;[root] aws_nat_gateway.name (expand) -->
<g id="edge18" class="edge">
<title>[root] aws_route_table.private (expand)&#45;&gt;[root] aws_nat_gateway.name (expand)</title>
<path fill="none" stroke="black" d="M688.03,-287.97C637.83,-277.72 573.81,-264.66 521.92,-254.07"/>
<polygon fill="black" stroke="black" points="522.54,-250.62 512.05,-252.05 521.14,-257.48 522.54,-250.62"/>
</g>
<!-- [root] var.Pri_rou_name -->
<g id="node18" class="node">
<title>[root] var.Pri_rou_name</title>
<polygon fill="none" stroke="black" points="835.5,-252 701.5,-252 701.5,-216 841.5,-216 841.5,-246 835.5,-252"/>
<polyline fill="none" stroke="black" points="835.5,-252 835.5,-246 "/>
<polyline fill="none" stroke="black" points="841.5,-246 835.5,-246 "/>
<text text-anchor="middle" x="771.5" y="-230.3" font-family="Times,serif" font-size="14.00">var.Pri_rou_name</text>
</g>
<!-- [root] aws_route_table.private (expand)&#45;&gt;[root] var.Pri_rou_name -->
<g id="edge19" class="edge">
<title>[root] aws_route_table.private (expand)&#45;&gt;[root] var.Pri_rou_name</title>
<path fill="none" stroke="black" d="M771.5,-287.7C771.5,-279.98 771.5,-270.71 771.5,-262.11"/>
<polygon fill="black" stroke="black" points="775,-262.1 771.5,-252.1 768,-262.1 775,-262.1"/>
</g>
<!-- [root] var.pri_route -->
<g id="node26" class="node">
<title>[root] var.pri_route</title>
<polygon fill="none" stroke="black" points="677.5,-252 575.5,-252 575.5,-216 683.5,-216 683.5,-246 677.5,-252"/>
<polyline fill="none" stroke="black" points="677.5,-252 677.5,-246 "/>
<polyline fill="none" stroke="black" points="683.5,-246 677.5,-246 "/>
<text text-anchor="middle" x="629.5" y="-230.3" font-family="Times,serif" font-size="14.00">var.pri_route</text>
</g>
<!-- [root] aws_route_table.private (expand)&#45;&gt;[root] var.pri_route -->
<g id="edge20" class="edge">
<title>[root] aws_route_table.private (expand)&#45;&gt;[root] var.pri_route</title>
<path fill="none" stroke="black" d="M736.76,-287.88C717.68,-278.47 693.82,-266.71 673.45,-256.67"/>
<polygon fill="black" stroke="black" points="674.89,-253.47 664.37,-252.19 671.79,-259.75 674.89,-253.47"/>
</g>
<!-- [root] aws_route_table.public (expand) -->
<g id="node7" class="node">
<title>[root] aws_route_table.public (expand)</title>
<polygon fill="none" stroke="black" points="311.5,-252 131.5,-252 131.5,-216 311.5,-216 311.5,-252"/>
<text text-anchor="middle" x="221.5" y="-230.3" font-family="Times,serif" font-size="14.00">aws_route_table.public</text>
</g>
<!-- [root] aws_route_table.public (expand)&#45;&gt;[root] aws_internet_gateway.Intgateway (expand) -->
<g id="edge21" class="edge">
<title>[root] aws_route_table.public (expand)&#45;&gt;[root] aws_internet_gateway.Intgateway (expand)</title>
<path fill="none" stroke="black" d="M271.63,-215.97C300.54,-206.14 337.07,-193.73 367.5,-183.39"/>
<polygon fill="black" stroke="black" points="368.8,-186.64 377.15,-180.11 366.55,-180.01 368.8,-186.64"/>
</g>
<!-- [root] var.Pub_rou_name -->
<g id="node19" class="node">
<title>[root] var.Pub_rou_name</title>
<polygon fill="none" stroke="black" points="274,-180 133,-180 133,-144 280,-144 280,-174 274,-180"/>
<polyline fill="none" stroke="black" points="274,-180 274,-174 "/>
<polyline fill="none" stroke="black" points="280,-174 274,-174 "/>
<text text-anchor="middle" x="206.5" y="-158.3" font-family="Times,serif" font-size="14.00">var.Pub_rou_name</text>
</g>
<!-- [root] aws_route_table.public (expand)&#45;&gt;[root] var.Pub_rou_name -->
<g id="edge22" class="edge">
<title>[root] aws_route_table.public (expand)&#45;&gt;[root] var.Pub_rou_name</title>
<path fill="none" stroke="black" d="M217.79,-215.7C216.14,-207.98 214.15,-198.71 212.31,-190.11"/>
<polygon fill="black" stroke="black" points="215.68,-189.15 210.17,-180.1 208.84,-190.62 215.68,-189.15"/>
</g>
<!-- [root] var.pub_route -->
<g id="node31" class="node">
<title>[root] var.pub_route</title>
<polygon fill="none" stroke="black" points="109,-180 0,-180 0,-144 115,-144 115,-174 109,-180"/>
<polyline fill="none" stroke="black" points="109,-180 109,-174 "/>
<polyline fill="none" stroke="black" points="115,-174 109,-174 "/>
<text text-anchor="middle" x="57.5" y="-158.3" font-family="Times,serif" font-size="14.00">var.pub_route</text>
</g>
<!-- [root] aws_route_table.public (expand)&#45;&gt;[root] var.pub_route -->
<g id="edge23" class="edge">
<title>[root] aws_route_table.public (expand)&#45;&gt;[root] var.pub_route</title>
<path fill="none" stroke="black" d="M181.38,-215.88C158.86,-206.26 130.58,-194.19 106.73,-184.01"/>
<polygon fill="black" stroke="black" points="108.06,-180.77 97.49,-180.07 105.31,-187.21 108.06,-180.77"/>
</g>
<!-- [root] aws_route_table_association.private (expand) -->
<g id="node8" class="node">
<title>[root] aws_route_table_association.private (expand)</title>
<polygon fill="none" stroke="black" points="1146.5,-396 872.5,-396 872.5,-360 1146.5,-360 1146.5,-396"/>
<text text-anchor="middle" x="1009.5" y="-374.3" font-family="Times,serif" font-size="14.00">aws_route_table_association.private</text>
</g>
<!-- [root] aws_route_table_association.private (expand)&#45;&gt;[root] aws_route_table.private (expand) -->
<g id="edge24" class="edge">
<title>[root] aws_route_table_association.private (expand)&#45;&gt;[root] aws_route_table.private (expand)</title>
<path fill="none" stroke="black" d="M951.58,-359.97C917.75,-350.01 874.88,-337.41 839.46,-326.99"/>
<polygon fill="black" stroke="black" points="840.26,-323.57 829.68,-324.11 838.28,-330.29 840.26,-323.57"/>
</g>
<!-- [root] aws_route_table_association.private (expand)&#45;&gt;[root] aws_subnet.private (expand) -->
<g id="edge25" class="edge">
<title>[root] aws_route_table_association.private (expand)&#45;&gt;[root] aws_subnet.private (expand)</title>
<path fill="none" stroke="black" d="M1009.5,-359.7C1009.5,-351.98 1009.5,-342.71 1009.5,-334.11"/>
<polygon fill="black" stroke="black" points="1013,-334.1 1009.5,-324.1 1006,-334.1 1013,-334.1"/>
</g>
<!-- [root] aws_route_table_association.public (expand) -->
<g id="node9" class="node">
<title>[root] aws_route_table_association.public (expand)</title>
<polygon fill="none" stroke="black" points="659.5,-324 393.5,-324 393.5,-288 659.5,-288 659.5,-324"/>
<text text-anchor="middle" x="526.5" y="-302.3" font-family="Times,serif" font-size="14.00">aws_route_table_association.public</text>
</g>
<!-- [root] aws_route_table_association.public (expand)&#45;&gt;[root] aws_route_table.public (expand) -->
<g id="edge26" class="edge">
<title>[root] aws_route_table_association.public (expand)&#45;&gt;[root] aws_route_table.public (expand)</title>
<path fill="none" stroke="black" d="M452.28,-287.97C408.01,-277.8 351.66,-264.87 305.72,-254.33"/>
<polygon fill="black" stroke="black" points="306.32,-250.88 295.79,-252.05 304.75,-257.7 306.32,-250.88"/>
</g>
<!-- [root] aws_route_table_association.public (expand)&#45;&gt;[root] aws_subnet.public (expand) -->
<g id="edge27" class="edge">
<title>[root] aws_route_table_association.public (expand)&#45;&gt;[root] aws_subnet.public (expand)</title>
<path fill="none" stroke="black" d="M529.04,-287.7C533.07,-266.98 543.03,-232.98 566.5,-216 583.41,-203.77 850.25,-180.86 990.23,-169.6"/>
<polygon fill="black" stroke="black" points="990.81,-173.06 1000.5,-168.77 990.25,-166.08 990.81,-173.06"/>
</g>
<!-- [root] aws_security_group.demo_vpc_SG (expand)&#45;&gt;[root] aws_vpc.demo (expand) -->
<g id="edge28" class="edge">
<title>[root] aws_security_group.demo_vpc_SG (expand)&#45;&gt;[root] aws_vpc.demo (expand)</title>
<path fill="none" stroke="black" d="M1710.06,-287.87C1725.36,-279.49 1740.87,-267.74 1749.5,-252 1757.19,-237.97 1758.51,-229.22 1749.5,-216 1694.15,-134.77 1577.22,-106.32 1501.62,-96.37"/>
<polygon fill="black" stroke="black" points="1501.59,-92.84 1491.23,-95.08 1500.73,-99.78 1501.59,-92.84"/>
</g>
<!-- [root] var.security_groups_name -->
<g id="node36" class="node">
<title>[root] var.security_groups_name</title>
<polygon fill="none" stroke="black" points="1734,-252 1537,-252 1537,-216 1740,-216 1740,-246 1734,-252"/>
<polyline fill="none" stroke="black" points="1734,-252 1734,-246 "/>
<polyline fill="none" stroke="black" points="1740,-246 1734,-246 "/>
<text text-anchor="middle" x="1638.5" y="-230.3" font-family="Times,serif" font-size="14.00">var.security_groups_name</text>
</g>
<!-- [root] aws_security_group.demo_vpc_SG (expand)&#45;&gt;[root] var.security_groups_name -->
<g id="edge29" class="edge">
<title>[root] aws_security_group.demo_vpc_SG (expand)&#45;&gt;[root] var.security_groups_name</title>
<path fill="none" stroke="black" d="M1659.58,-287.7C1656.43,-279.81 1652.62,-270.3 1649.12,-261.55"/>
<polygon fill="black" stroke="black" points="1652.31,-260.09 1645.34,-252.1 1645.81,-262.69 1652.31,-260.09"/>
</g>
<!-- [root] aws_subnet.private (expand)&#45;&gt;[root] aws_vpc.demo (expand) -->
<g id="edge30" class="edge">
<title>[root] aws_subnet.private (expand)&#45;&gt;[root] aws_vpc.demo (expand)</title>
<path fill="none" stroke="black" d="M1087.26,-289.29C1090.04,-288.84 1092.79,-288.4 1095.5,-288 1174.15,-276.28 1398.18,-310.99 1451.5,-252 1484.82,-215.14 1462.72,-152.63 1445.76,-117.32"/>
<polygon fill="black" stroke="black" points="1448.76,-115.5 1441.16,-108.13 1442.5,-118.64 1448.76,-115.5"/>
</g>
<!-- [root] var.pri_availability -->
<g id="node24" class="node">
<title>[root] var.pri_availability</title>
<polygon fill="none" stroke="black" points="1003,-252 860,-252 860,-216 1009,-216 1009,-246 1003,-252"/>
<polyline fill="none" stroke="black" points="1003,-252 1003,-246 "/>
<polyline fill="none" stroke="black" points="1009,-246 1003,-246 "/>
<text text-anchor="middle" x="934.5" y="-230.3" font-family="Times,serif" font-size="14.00">var.pri_availability</text>
</g>
<!-- [root] aws_subnet.private (expand)&#45;&gt;[root] var.pri_availability -->
<g id="edge31" class="edge">
<title>[root] aws_subnet.private (expand)&#45;&gt;[root] var.pri_availability</title>
<path fill="none" stroke="black" d="M990.96,-287.7C981.7,-279.05 970.34,-268.45 960.24,-259.03"/>
<polygon fill="black" stroke="black" points="962.52,-256.37 952.83,-252.1 957.75,-261.49 962.52,-256.37"/>
</g>
<!-- [root] var.pri_cidr_block -->
<g id="node25" class="node">
<title>[root] var.pri_cidr_block</title>
<polygon fill="none" stroke="black" points="1163.5,-252 1027.5,-252 1027.5,-216 1169.5,-216 1169.5,-246 1163.5,-252"/>
<polyline fill="none" stroke="black" points="1163.5,-252 1163.5,-246 "/>
<polyline fill="none" stroke="black" points="1169.5,-246 1163.5,-246 "/>
<text text-anchor="middle" x="1098.5" y="-230.3" font-family="Times,serif" font-size="14.00">var.pri_cidr_block</text>
</g>
<!-- [root] aws_subnet.private (expand)&#45;&gt;[root] var.pri_cidr_block -->
<g id="edge32" class="edge">
<title>[root] aws_subnet.private (expand)&#45;&gt;[root] var.pri_cidr_block</title>
<path fill="none" stroke="black" d="M1031.5,-287.7C1042.71,-278.88 1056.5,-268.03 1068.65,-258.47"/>
<polygon fill="black" stroke="black" points="1071.06,-261.04 1076.75,-252.1 1066.73,-255.54 1071.06,-261.04"/>
</g>
<!-- [root] var.pri_sub -->
<g id="node27" class="node">
<title>[root] var.pri_sub</title>
<polygon fill="none" stroke="black" points="1277,-252 1188,-252 1188,-216 1283,-216 1283,-246 1277,-252"/>
<polyline fill="none" stroke="black" points="1277,-252 1277,-246 "/>
<polyline fill="none" stroke="black" points="1283,-246 1277,-246 "/>
<text text-anchor="middle" x="1235.5" y="-230.3" font-family="Times,serif" font-size="14.00">var.pri_sub</text>
</g>
<!-- [root] aws_subnet.private (expand)&#45;&gt;[root] var.pri_sub -->
<g id="edge33" class="edge">
<title>[root] aws_subnet.private (expand)&#45;&gt;[root] var.pri_sub</title>
<path fill="none" stroke="black" d="M1064.5,-287.97C1099.01,-277.28 1143.43,-263.52 1178.35,-252.7"/>
<polygon fill="black" stroke="black" points="1179.41,-256.04 1187.93,-249.73 1177.34,-249.35 1179.41,-256.04"/>
</g>
<!-- [root] var.pri_sub_name -->
<g id="node28" class="node">
<title>[root] var.pri_sub_name</title>
<polygon fill="none" stroke="black" points="1436,-252 1301,-252 1301,-216 1442,-216 1442,-246 1436,-252"/>
<polyline fill="none" stroke="black" points="1436,-252 1436,-246 "/>
<polyline fill="none" stroke="black" points="1442,-246 1436,-246 "/>
<text text-anchor="middle" x="1371.5" y="-230.3" font-family="Times,serif" font-size="14.00">var.pri_sub_name</text>
</g>
<!-- [root] aws_subnet.private (expand)&#45;&gt;[root] var.pri_sub_name -->
<g id="edge34" class="edge">
<title>[root] aws_subnet.private (expand)&#45;&gt;[root] var.pri_sub_name</title>
<path fill="none" stroke="black" d="M1087.31,-289.57C1090.07,-289.04 1092.81,-288.51 1095.5,-288 1179.44,-272 1202.98,-269.38 1290.97,-252.08"/>
<polygon fill="black" stroke="black" points="1291.72,-255.5 1300.85,-250.12 1290.36,-248.63 1291.72,-255.5"/>
</g>
<!-- [root] aws_subnet.public (expand)&#45;&gt;[root] aws_vpc.demo (expand) -->
<g id="edge35" class="edge">
<title>[root] aws_subnet.public (expand)&#45;&gt;[root] aws_vpc.demo (expand)</title>
<path fill="none" stroke="black" d="M1148.73,-148.59C1204.64,-138.96 1283.4,-124.77 1361.67,-108.11"/>
<polygon fill="black" stroke="black" points="1362.67,-111.48 1371.71,-105.96 1361.2,-104.63 1362.67,-111.48"/>
</g>
<!-- [root] var.pub_availability -->
<g id="node29" class="node">
<title>[root] var.pub_availability</title>
<polygon fill="none" stroke="black" points="1061,-108 912,-108 912,-72 1067,-72 1067,-102 1061,-108"/>
<polyline fill="none" stroke="black" points="1061,-108 1061,-102 "/>
<polyline fill="none" stroke="black" points="1067,-102 1061,-102 "/>
<text text-anchor="middle" x="989.5" y="-86.3" font-family="Times,serif" font-size="14.00">var.pub_availability</text>
</g>
<!-- [root] aws_subnet.public (expand)&#45;&gt;[root] var.pub_availability -->
<g id="edge36" class="edge">
<title>[root] aws_subnet.public (expand)&#45;&gt;[root] var.pub_availability</title>
<path fill="none" stroke="black" d="M1053.49,-143.7C1042.78,-134.88 1029.61,-124.03 1018,-114.47"/>
<polygon fill="black" stroke="black" points="1020.21,-111.76 1010.27,-108.1 1015.76,-117.16 1020.21,-111.76"/>
</g>
<!-- [root] var.pub_cidr_block -->
<g id="node30" class="node">
<title>[root] var.pub_cidr_block</title>
<polygon fill="none" stroke="black" points="1228,-108 1085,-108 1085,-72 1234,-72 1234,-102 1228,-108"/>
<polyline fill="none" stroke="black" points="1228,-108 1228,-102 "/>
<polyline fill="none" stroke="black" points="1234,-102 1228,-102 "/>
<text text-anchor="middle" x="1159.5" y="-86.3" font-family="Times,serif" font-size="14.00">var.pub_cidr_block</text>
</g>
<!-- [root] aws_subnet.public (expand)&#45;&gt;[root] var.pub_cidr_block -->
<g id="edge37" class="edge">
<title>[root] aws_subnet.public (expand)&#45;&gt;[root] var.pub_cidr_block</title>
<path fill="none" stroke="black" d="M1095.51,-143.7C1106.22,-134.88 1119.39,-124.03 1131,-114.47"/>
<polygon fill="black" stroke="black" points="1133.24,-117.16 1138.73,-108.1 1128.79,-111.76 1133.24,-117.16"/>
</g>
<!-- [root] var.pub_sub -->
<g id="node32" class="node">
<title>[root] var.pub_sub</title>
<polygon fill="none" stroke="black" points="1347.5,-108 1251.5,-108 1251.5,-72 1353.5,-72 1353.5,-102 1347.5,-108"/>
<polyline fill="none" stroke="black" points="1347.5,-108 1347.5,-102 "/>
<polyline fill="none" stroke="black" points="1353.5,-102 1347.5,-102 "/>
<text text-anchor="middle" x="1302.5" y="-86.3" font-family="Times,serif" font-size="14.00">var.pub_sub</text>
</g>
<!-- [root] aws_subnet.public (expand)&#45;&gt;[root] var.pub_sub -->
<g id="edge38" class="edge">
<title>[root] aws_subnet.public (expand)&#45;&gt;[root] var.pub_sub</title>
<path fill="none" stroke="black" d="M1129.98,-143.97C1163.84,-133.57 1207.14,-120.28 1241.9,-109.61"/>
<polygon fill="black" stroke="black" points="1242.92,-112.95 1251.46,-106.67 1240.87,-106.26 1242.92,-112.95"/>
</g>
<!-- [root] var.pub_sub_name -->
<g id="node33" class="node">
<title>[root] var.pub_sub_name</title>
<polygon fill="none" stroke="black" points="887.5,-108 745.5,-108 745.5,-72 893.5,-72 893.5,-102 887.5,-108"/>
<polyline fill="none" stroke="black" points="887.5,-108 887.5,-102 "/>
<polyline fill="none" stroke="black" points="893.5,-102 887.5,-102 "/>
<text text-anchor="middle" x="819.5" y="-86.3" font-family="Times,serif" font-size="14.00">var.pub_sub_name</text>
</g>
<!-- [root] aws_subnet.public (expand)&#45;&gt;[root] var.pub_sub_name -->
<g id="edge39" class="edge">
<title>[root] aws_subnet.public (expand)&#45;&gt;[root] var.pub_sub_name</title>
<path fill="none" stroke="black" d="M1012.45,-143.97C976.04,-133.97 929.87,-121.3 891.82,-110.85"/>
<polygon fill="black" stroke="black" points="892.4,-107.38 881.83,-108.11 890.55,-114.13 892.4,-107.38"/>
</g>
<!-- [root] aws_vpc.demo (expand)&#45;&gt;[root] provider[&quot;registry.terraform.io/hashicorp/aws&quot;] -->
<g id="edge40" class="edge">
<title>[root] aws_vpc.demo (expand)&#45;&gt;[root] provider[&quot;registry.terraform.io/hashicorp/aws&quot;]</title>
<path fill="none" stroke="black" d="M1371.77,-73.72C1368.65,-73.09 1365.54,-72.52 1362.5,-72 1231.44,-49.73 1081.3,-36.11 970.1,-28.27"/>
<polygon fill="black" stroke="black" points="970.02,-24.75 959.8,-27.55 969.53,-31.74 970.02,-24.75"/>
</g>
<!-- [root] var.cidr_block -->
<g id="node21" class="node">
<title>[root] var.cidr_block</title>
<polygon fill="none" stroke="black" points="1549,-36 1440,-36 1440,0 1555,0 1555,-30 1549,-36"/>
<polyline fill="none" stroke="black" points="1549,-36 1549,-30 "/>
<polyline fill="none" stroke="black" points="1555,-30 1549,-30 "/>
<text text-anchor="middle" x="1497.5" y="-14.3" font-family="Times,serif" font-size="14.00">var.cidr_block</text>
</g>
<!-- [root] aws_vpc.demo (expand)&#45;&gt;[root] var.cidr_block -->
<g id="edge41" class="edge">
<title>[root] aws_vpc.demo (expand)&#45;&gt;[root] var.cidr_block</title>
<path fill="none" stroke="black" d="M1447.81,-71.7C1455.81,-63.22 1465.57,-52.86 1474.32,-43.58"/>
<polygon fill="black" stroke="black" points="1477.06,-45.78 1481.37,-36.1 1471.97,-40.98 1477.06,-45.78"/>
</g>
<!-- [root] var.vpc_name -->
<g id="node37" class="node">
<title>[root] var.vpc_name</title>
<polygon fill="none" stroke="black" points="1416,-36 1309,-36 1309,0 1422,0 1422,-30 1416,-36"/>
<polyline fill="none" stroke="black" points="1416,-36 1416,-30 "/>
<polyline fill="none" stroke="black" points="1422,-30 1416,-30 "/>
<text text-anchor="middle" x="1365.5" y="-14.3" font-family="Times,serif" font-size="14.00">var.vpc_name</text>
</g>
<!-- [root] aws_vpc.demo (expand)&#45;&gt;[root] var.vpc_name -->
<g id="edge42" class="edge">
<title>[root] aws_vpc.demo (expand)&#45;&gt;[root] var.vpc_name</title>
<path fill="none" stroke="black" d="M1415.19,-71.7C1407.19,-63.22 1397.43,-52.86 1388.68,-43.58"/>
<polygon fill="black" stroke="black" points="1391.03,-40.98 1381.63,-36.1 1385.94,-45.78 1391.03,-40.98"/>
</g>
<!-- [root] var.region -->
<g id="node34" class="node">
<title>[root] var.region</title>
<polygon fill="none" stroke="black" points="1521,-468 1438,-468 1438,-432 1527,-432 1527,-462 1521,-468"/>
<polyline fill="none" stroke="black" points="1521,-468 1521,-462 "/>
<polyline fill="none" stroke="black" points="1527,-462 1521,-462 "/>
<text text-anchor="middle" x="1482.5" y="-446.3" font-family="Times,serif" font-size="14.00">var.region</text>
</g>
<!-- [root] provider[&quot;registry.terraform.io/hashicorp/aws&quot;] (close) -->
<g id="node38" class="node">
<title>[root] provider[&quot;registry.terraform.io/hashicorp/aws&quot;] (close)</title>
<ellipse fill="none" stroke="black" cx="1128.5" cy="-450" rx="291.65" ry="18"/>
<text text-anchor="middle" x="1128.5" y="-446.3" font-family="Times,serif" font-size="14.00">[root] provider[&quot;registry.terraform.io/hashicorp/aws&quot;] (close)</text>
</g>
<!-- [root] provider[&quot;registry.terraform.io/hashicorp/aws&quot;] (close)&#45;&gt;[root] aws_instance.private (expand) -->
<g id="edge43" class="edge">
<title>[root] provider[&quot;registry.terraform.io/hashicorp/aws&quot;] (close)&#45;&gt;[root] aws_instance.private (expand)</title>
<path fill="none" stroke="black" d="M1162.15,-432.05C1180.96,-422.58 1204.6,-410.68 1224.72,-400.55"/>
<polygon fill="black" stroke="black" points="1226.32,-403.66 1233.68,-396.03 1223.17,-397.4 1226.32,-403.66"/>
</g>
<!-- [root] provider[&quot;registry.terraform.io/hashicorp/aws&quot;] (close)&#45;&gt;[root] aws_instance.public (expand) -->
<g id="edge44" class="edge">
<title>[root] provider[&quot;registry.terraform.io/hashicorp/aws&quot;] (close)&#45;&gt;[root] aws_instance.public (expand)</title>
<path fill="none" stroke="black" d="M1210.12,-432.68C1263.65,-421.97 1333.66,-407.97 1388.76,-396.95"/>
<polygon fill="black" stroke="black" points="1389.75,-400.32 1398.87,-394.93 1388.37,-393.46 1389.75,-400.32"/>
</g>
<!-- [root] provider[&quot;registry.terraform.io/hashicorp/aws&quot;] (close)&#45;&gt;[root] aws_route_table_association.private (expand) -->
<g id="edge45" class="edge">
<title>[root] provider[&quot;registry.terraform.io/hashicorp/aws&quot;] (close)&#45;&gt;[root] aws_route_table_association.private (expand)</title>
<path fill="none" stroke="black" d="M1099.69,-432.05C1084.02,-422.84 1064.44,-411.32 1047.53,-401.37"/>
<polygon fill="black" stroke="black" points="1048.85,-398.09 1038.45,-396.03 1045.3,-404.12 1048.85,-398.09"/>
</g>
<!-- [root] provider[&quot;registry.terraform.io/hashicorp/aws&quot;] (close)&#45;&gt;[root] aws_route_table_association.public (expand) -->
<g id="edge46" class="edge">
<title>[root] provider[&quot;registry.terraform.io/hashicorp/aws&quot;] (close)&#45;&gt;[root] aws_route_table_association.public (expand)</title>
<path fill="none" stroke="black" d="M1040.48,-432.79C988.77,-422.92 922.23,-409.62 863.5,-396 770.51,-374.44 664.17,-345.66 596.23,-326.74"/>
<polygon fill="black" stroke="black" points="597.07,-323.34 586.49,-324.02 595.18,-330.08 597.07,-323.34"/>
</g>
<!-- [root] root -->
<g id="node39" class="node">
<title>[root] root</title>
<ellipse fill="none" stroke="black" cx="1305.5" cy="-522" rx="58.49" ry="18"/>
<text text-anchor="middle" x="1305.5" y="-518.3" font-family="Times,serif" font-size="14.00">[root] root</text>
</g>
<!-- [root] root&#45;&gt;[root] var.region -->
<g id="edge48" class="edge">
<title>[root] root&#45;&gt;[root] var.region</title>
<path fill="none" stroke="black" d="M1340.05,-507.34C1365.54,-497.26 1400.68,-483.36 1429.69,-471.89"/>
<polygon fill="black" stroke="black" points="1431.25,-475.03 1439.26,-468.1 1428.68,-468.52 1431.25,-475.03"/>
</g>
<!-- [root] root&#45;&gt;[root] provider[&quot;registry.terraform.io/hashicorp/aws&quot;] (close) -->
<g id="edge47" class="edge">
<title>[root] root&#45;&gt;[root] provider[&quot;registry.terraform.io/hashicorp/aws&quot;] (close)</title>
<path fill="none" stroke="black" d="M1270.95,-507.34C1245.28,-497.19 1209.82,-483.16 1180.7,-471.64"/>
<polygon fill="black" stroke="black" points="1181.68,-468.27 1171.09,-467.84 1179.1,-474.78 1181.68,-468.27"/>
</g>
</g>
</svg>
